<svg width="38" height="38" viewBox="0 0 38 38" fill="none" xmlns="http://www.w3.org/2000/svg">
<g clip-path="url(#clip0_1_35)">
<path d="M37.4299 23.5963C34.8922 33.775 24.5824 39.969 14.4025 37.4313C4.22741 34.8936 -1.96718 24.5837 0.5711 14.4056C3.1076 4.22573 13.4169 -1.96947 23.5938 0.568223C33.773 3.10592 39.967 13.417 37.4293 23.5963H37.4299Z" fill="#F7931A"/>
<path d="M27.3775 16.2931C27.7552 13.7649 25.8302 12.4058 23.1981 11.4991L24.0519 8.07437L21.9667 7.55484L21.1354 10.8893C20.588 10.7528 20.0251 10.6239 19.4658 10.4963L20.303 7.13981L18.2195 6.62028L17.3651 10.0438C16.9115 9.94053 16.4662 9.8384 16.0339 9.73093L16.0363 9.72025L13.1614 9.0024L12.6068 11.229C12.6068 11.229 14.1535 11.5834 14.1209 11.6054C14.9652 11.8162 15.1184 12.3749 15.0923 12.8178L14.1197 16.7194C14.1779 16.7342 14.2533 16.7556 14.3364 16.7888L14.1167 16.7342L12.7529 22.1997C12.6496 22.4562 12.3877 22.8409 11.7975 22.6949C11.8183 22.7252 10.2823 22.3167 10.2823 22.3167L9.24738 24.7035L11.9608 25.3798C12.4655 25.5063 12.9601 25.6387 13.4464 25.7634L12.5837 29.2279L14.6659 29.7474L15.5209 26.3203C16.0892 26.4747 16.6413 26.6172 17.1817 26.7514L16.3302 30.1625L18.4149 30.682L19.2776 27.2246C22.8324 27.8973 25.506 27.626 26.63 24.4114C27.5367 21.8227 26.5855 20.3294 24.7152 19.355C26.0772 19.0397 27.1032 18.1438 27.3769 16.2931H27.3775ZM22.6139 22.9722C21.9691 25.5609 17.6109 24.162 16.1972 23.8105L17.342 19.2214C18.7551 19.5741 23.286 20.2724 22.6145 22.9722H22.6139ZM23.2581 16.2557C22.6703 18.6105 19.0425 17.4141 17.8651 17.1207L18.9029 12.9586C20.0803 13.2519 23.8708 13.7993 23.2581 16.2557Z" fill="white"/>
</g>
<defs>
<clipPath id="clip0_1_35">
<rect width="38" height="38" fill="white"/>
</clipPath>
</defs>
</svg>
