<svg width="28" height="28" viewBox="0 0 28 28" fill="none" xmlns="http://www.w3.org/2000/svg">
<g clip-path="url(#clip0_1_157)">
<path d="M24.2766 17.7234C24.2766 15.7739 23.728 13.8766 22.6903 12.2364C21.6811 10.6414 20.2556 9.35501 18.5679 8.51627L17.7725 10.1167C20.682 11.5627 22.4894 14.4775 22.4894 17.7234C22.4894 22.4044 18.6811 26.2127 14 26.2127C9.31895 26.2127 5.51065 22.4044 5.51065 17.7234C5.51065 14.4775 7.31802 11.5627 10.2275 10.1167L9.43208 8.51627C7.7444 9.35501 6.31896 10.6414 5.30977 12.2364C4.27198 13.8766 3.72342 15.7739 3.72342 17.7234C3.72342 23.3899 8.33347 28 14 28C19.6666 28 24.2766 23.3899 24.2766 17.7234Z" fill="white"/>
<path d="M11.0574 14.5171L9.79366 15.7808L14 19.9872L18.2063 15.7808L16.9426 14.5171L14.8936 16.566L14.8936 1L13.1064 1L13.1064 16.566L11.0574 14.5171Z" fill="white"/>
</g>
<defs>
<clipPath id="clip0_1_157">
<rect width="28" height="28" fill="white" transform="translate(28) rotate(90)"/>
</clipPath>
</defs>
</svg>
