<svg width="38" height="38" viewBox="0 0 38 38" fill="none" xmlns="http://www.w3.org/2000/svg">
<g clip-path="url(#clip0_1_47)">
<path d="M37.4299 23.5963C34.8922 33.775 24.5824 39.969 14.4025 37.4313C4.22741 34.8936 -1.96718 24.5837 0.5711 14.4056C3.1076 4.22573 13.4169 -1.96947 23.5938 0.568225C33.773 3.10592 39.9676 13.417 37.4299 23.5963Z" fill="white"/>
<g clip-path="url(#clip1_1_47)">
<path d="M18.9979 6.99997L18.8451 7.52395V22.7287L18.9979 22.8826L25.9948 18.7107L18.9979 6.99997Z" fill="#343434"/>
<path d="M18.9983 6.99997L12.0014 18.7107L18.9983 22.8826V15.5027V6.99997Z" fill="#8C8C8C"/>
<path d="M18.9979 24.219L18.9117 24.3249V29.7411L18.9979 29.9948L25.999 20.0492L18.9979 24.219Z" fill="#3C3C3B"/>
<path d="M18.9979 29.9948V24.2189L12.001 20.0491L18.9979 29.9948Z" fill="#8C8C8C"/>
<path d="M18.9979 22.8826L25.9946 18.7108L18.9979 15.5028V22.8826Z" fill="#141414"/>
<path d="M12.001 18.7107L18.9978 22.8825V15.5027L12.001 18.7107Z" fill="#393939"/>
</g>
</g>
<defs>
<clipPath id="clip0_1_47">
<rect width="38" height="38" fill="white"/>
</clipPath>
<clipPath id="clip1_1_47">
<rect width="14" height="23" fill="white" transform="translate(12 7)"/>
</clipPath>
</defs>
</svg>
