<svg width="42" height="42" viewBox="0 0 42 42" fill="none" xmlns="http://www.w3.org/2000/svg">
<g clip-path="url(#clip0_1_267)">
<path d="M13 21C13 19.4178 13.4692 17.871 14.3482 16.5554C15.2273 15.2398 16.4767 14.2145 17.9385 13.609C19.4003 13.0035 21.0089 12.845 22.5607 13.1537C24.1126 13.4624 25.538 14.2243 26.6569 15.3431C27.7757 16.462 28.5376 17.8874 28.8463 19.4393C29.155 20.9911 28.9965 22.5997 28.391 24.0615C27.7855 25.5233 26.7602 26.7727 25.4446 27.6518C24.129 28.5308 22.5822 29 21 29C18.8783 29 16.8434 28.1571 15.3431 26.6569C13.8429 25.1566 13 23.1217 13 21ZM25 21C25 20.2089 24.7654 19.4355 24.3259 18.7777C23.8863 18.1199 23.2616 17.6072 22.5307 17.3045C21.7998 17.0017 20.9956 16.9225 20.2196 17.0769C19.4437 17.2312 18.731 17.6122 18.1716 18.1716C17.6122 18.731 17.2312 19.4437 17.0769 20.2196C16.9225 20.9956 17.0017 21.7998 17.3045 22.5307C17.6072 23.2616 18.1199 23.8864 18.7777 24.3259C19.4355 24.7654 20.2089 25 21 25C22.0609 25 23.0783 24.5786 23.8284 23.8284C24.5786 23.0783 25 22.0609 25 21Z" fill="black"/>
<path d="M4.81347 11.6547L21 2.3094L37.1865 11.6547V30.3453L21 39.6906L4.81347 30.3453V11.6547Z" stroke="black" stroke-width="4"/>
</g>
<defs>
<clipPath id="clip0_1_267">
<rect width="42" height="42" fill="white" transform="matrix(-4.37114e-08 1 1 4.37114e-08 0 0)"/>
</clipPath>
</defs>
</svg>
