<svg width="28" height="28" viewBox="0 0 28 28" fill="none" xmlns="http://www.w3.org/2000/svg">
<g clip-path="url(#clip0_1_163)">
<path d="M24.2766 17.7234C24.2766 15.7739 23.7281 13.8766 22.6903 12.2364C21.6811 10.6414 20.2556 9.35501 18.568 8.51627L17.7725 10.1167C20.682 11.5627 22.4894 14.4775 22.4894 17.7234C22.4894 22.4044 18.6811 26.2127 14 26.2127C9.31896 26.2127 5.51066 22.4044 5.51066 17.7234C5.51066 14.4775 7.31803 11.5627 10.2275 10.1167L9.43209 8.51627C7.74441 9.35501 6.31897 10.6414 5.30978 12.2364C4.27199 13.8766 3.72343 15.7739 3.72343 17.7234C3.72343 23.3899 8.33348 28 14 28C19.6666 28 24.2766 23.3899 24.2766 17.7234Z" fill="white"/>
<path d="M11.0574 6.46997L9.79367 5.20628L14 0.999903L18.2063 5.20628L16.9426 6.46997L14.8936 4.42103L14.8936 19.9871L13.1064 19.9871L13.1064 4.42103L11.0574 6.46997Z" fill="white"/>
</g>
<defs>
<clipPath id="clip0_1_163">
<rect width="28" height="28" fill="white" transform="translate(28) rotate(90)"/>
</clipPath>
</defs>
</svg>
