<svg width="38" height="38" viewBox="0 0 38 38" fill="none" xmlns="http://www.w3.org/2000/svg">
<g clip-path="url(#clip0_1_96)">
<path d="M37.4299 23.5963C34.8922 33.775 24.5824 39.969 14.4025 37.4313C4.22741 34.8936 -1.96718 24.5837 0.5711 14.4056C3.1076 4.22575 13.4169 -1.96946 23.5938 0.568238C33.773 3.10593 39.9676 13.417 37.4299 23.5963Z" fill="white"/>
<path d="M19 34C10.7284 34 4 27.2716 4 19C4 10.7284 10.7284 4 19 4C27.2716 4 34 10.7284 34 19C34 27.2716 27.2716 34 19 34ZM19 6.4288C12.0652 6.4288 6.4288 12.0652 6.4288 19C6.4288 25.9348 12.0652 31.5712 19 31.5712C25.9348 31.5712 31.5712 25.9348 31.5712 19C31.5712 12.0652 25.9348 6.4288 19 6.4288Z" fill="#E6201A"/>
<path d="M26.008 13.972C25.474 12.7336 24.3076 11.956 22.96 11.956L15.016 11.8828H14.992C13.6804 11.8828 12.526 12.6232 12.004 13.8256C11.458 15.052 11.6884 16.4368 12.6112 17.4208L13.7044 18.5992L15.3568 16.8136L14.3968 15.7696C14.02 15.3568 14.1664 14.932 14.2264 14.7976C14.2876 14.6524 14.506 14.2996 14.992 14.2996H15.004L22.9468 14.3728C23.4928 14.3728 23.7244 14.7976 23.7844 14.932C23.8576 15.0904 23.9788 15.5032 23.6392 15.8668L19.7044 20.1424C19.486 20.3728 19.2184 20.41 19.0852 20.41C18.8296 20.41 18.5872 20.3008 18.4168 20.1064L17.7484 19.39L16.096 21.1756L16.63 21.7468C17.2612 22.4272 18.16 22.828 19.084 22.828C19.9948 22.828 20.8816 22.4392 21.4888 21.7708L25.4236 17.4952C26.3116 16.546 26.53 15.1864 26.008 13.972Z" fill="#E6201A"/>
<path d="M25.5459 20.3608L24.4287 19.1464L22.5219 21.2116L23.4819 22.2556C23.7375 22.5352 23.6643 22.8388 23.5911 22.996C23.5431 23.1052 23.3607 23.4448 22.9227 23.4448L14.98 23.518C14.5792 23.518 14.4208 23.2504 14.3728 23.1292C14.3116 23.008 14.2144 22.6804 14.506 22.3636L18.514 18.028C18.6592 17.8696 18.8416 17.7856 19.048 17.7856C19.1572 17.7856 19.3636 17.8096 19.534 17.992L20.3595 18.8908L22.2663 16.8256L21.5979 16.0972C20.9415 15.3928 20.0187 14.98 19.06 14.98C18.076 14.98 17.1412 15.3928 16.4728 16.1212L12.4648 20.4568C11.4928 21.5008 11.2504 22.9588 11.8216 24.2584C12.3808 25.522 13.5952 26.3117 14.98 26.3117L22.9479 26.2385C24.3567 26.2265 25.5951 25.4128 26.1543 24.1012C26.7243 22.8136 26.4939 21.3808 25.5459 20.3608Z" fill="#E6201A"/>
</g>
<defs>
<clipPath id="clip0_1_96">
<rect width="38" height="38" fill="white"/>
</clipPath>
</defs>
</svg>
