<svg width="147" height="32" viewBox="0 0 147 32" fill="none" xmlns="http://www.w3.org/2000/svg">
<path d="M21.3789 8.0332V8.64746H15.7676V8.0332C15.7676 7.13672 15.3857 6.44499 14.6221 5.95801C13.8695 5.45996 12.7738 5.21094 11.335 5.21094C10.029 5.21094 8.97201 5.43229 8.16406 5.875C7.33398 6.31771 6.91895 6.9707 6.91895 7.83398C6.91895 8.98503 7.94271 9.78743 9.99023 10.2412C10.4219 10.3408 11.3737 10.5234 12.8457 10.7891C14.3177 11.0436 15.4688 11.2816 16.2988 11.5029C17.3835 11.8018 18.3851 12.1836 19.3037 12.6484C20.2113 13.1133 20.9473 13.7995 21.5117 14.707C22.0762 15.6146 22.3584 16.7214 22.3584 18.0273C22.3584 20.3294 21.401 22.1224 19.4863 23.4062C17.5716 24.6901 14.9264 25.332 11.5508 25.332C8.05339 25.332 5.36947 24.679 3.49902 23.373C1.62858 22.0671 0.693359 20.1745 0.693359 17.6953V16.832H6.30469V17.7949C6.30469 18.9238 6.74186 19.7373 7.61621 20.2354C8.49056 20.7334 9.80208 20.9824 11.5508 20.9824C15.015 20.9824 16.7471 20.0085 16.7471 18.0605C16.7471 17.0202 15.7288 16.2731 13.6924 15.8193C13.6038 15.7972 12.7461 15.6367 11.1191 15.3379C9.50326 15.028 8.25814 14.7402 7.38379 14.4746C6.32129 14.1536 5.31966 13.7441 4.37891 13.2461C3.48242 12.7702 2.74642 12.0674 2.1709 11.1377C1.59538 10.2301 1.30762 9.13997 1.30762 7.86719C1.30762 5.70898 2.19303 3.99902 3.96387 2.7373C5.74577 1.48665 8.2028 0.861328 11.335 0.861328C14.5335 0.861328 17.0072 1.47559 18.7559 2.7041C20.5046 3.95475 21.3789 5.73112 21.3789 8.0332ZM36.4724 12.9971H36.3064L32.9695 25H26.4118L21.863 8H26.9597L29.7155 20.3682H29.9148L33.3513 8H39.4441L42.864 20.3682H43.0798L45.8357 8H50.9323L46.3669 25H39.8093L36.4724 12.9971ZM58.6381 25.332C56.3139 25.332 54.3605 24.5407 52.7778 22.958C51.1951 21.3753 50.4038 19.2227 50.4038 16.5C50.4038 13.7773 51.1951 11.6247 52.7778 10.042C54.3605 8.45931 56.3139 7.66797 58.6381 7.66797C59.435 7.66797 60.1931 7.77311 60.9125 7.9834C61.643 8.18262 62.2351 8.44271 62.6889 8.76367C63.5411 9.3724 64.1388 9.93132 64.4819 10.4404L64.6645 10.7891H64.8969V8H69.7944V25H64.8969V22.9248H64.6977C64.6092 23.0687 64.3103 23.3454 63.8012 23.7549C63.4581 24.0316 63.0652 24.2806 62.6225 24.502C61.5157 25.0553 60.1876 25.332 58.6381 25.332ZM56.7289 13.2627C55.8767 14.1149 55.4506 15.194 55.4506 16.5C55.4506 17.8171 55.8767 18.8906 56.7289 19.7207C57.5701 20.5618 58.7156 20.9824 60.1655 20.9824C61.5932 20.9824 62.7387 20.5674 63.602 19.7373C64.4653 18.9294 64.8969 17.8503 64.8969 16.5C64.8969 15.194 64.4708 14.1149 63.6186 13.2627C62.7774 12.4326 61.6264 12.0176 60.1655 12.0176C58.7267 12.0176 57.5812 12.4326 56.7289 13.2627ZM88.8722 10.042C90.4438 11.6136 91.2296 13.7663 91.2296 16.5C91.2296 19.2337 90.4438 21.3864 88.8722 22.958C87.2895 24.5407 85.3306 25.332 82.9953 25.332C81.7114 25.332 80.5714 25.1273 79.5753 24.7178C78.5571 24.3193 77.8599 23.9154 77.4836 23.5059L76.9523 22.9248H76.7365V31.8066H71.839V8H76.7365V10.7891H76.9855C77.0962 10.5456 77.3784 10.1803 77.8322 9.69336C78.1864 9.33919 78.5682 9.02376 78.9777 8.74707C79.4315 8.44824 80.0181 8.19368 80.7375 7.9834C81.4679 7.77311 82.2205 7.66797 82.9953 7.66797C85.3306 7.66797 87.2895 8.45931 88.8722 10.042ZM84.9211 19.7207C85.7733 18.8906 86.1994 17.8171 86.1994 16.5C86.1994 15.194 85.7733 14.1149 84.9211 13.2627C84.0688 12.4326 82.9178 12.0176 81.4679 12.0176C80.0181 12.0176 78.867 12.4326 78.0148 13.2627C77.1626 14.1149 76.7365 15.194 76.7365 16.5C76.7365 17.8503 77.1681 18.9294 78.0314 19.7373C78.8947 20.5674 80.0402 20.9824 81.4679 20.9824C82.9289 20.9824 84.0799 20.5618 84.9211 19.7207ZM109.627 10.042C111.198 11.6136 111.984 13.7663 111.984 16.5C111.984 19.2337 111.198 21.3864 109.627 22.958C108.044 24.5407 106.085 25.332 103.75 25.332C102.466 25.332 101.326 25.1273 100.33 24.7178C99.3117 24.3193 98.6145 23.9154 98.2382 23.5059L97.7069 22.9248H97.4911V31.8066H92.5936V8H97.4911V10.7891H97.7401C97.8508 10.5456 98.133 10.1803 98.5868 9.69336C98.941 9.33919 99.3228 9.02376 99.7323 8.74707C100.186 8.44824 100.773 8.19368 101.492 7.9834C102.223 7.77311 102.975 7.66797 103.75 7.66797C106.085 7.66797 108.044 8.45931 109.627 10.042ZM105.676 19.7207C106.528 18.8906 106.954 17.8171 106.954 16.5C106.954 15.194 106.528 14.1149 105.676 13.2627C104.823 12.4326 103.672 12.0176 102.223 12.0176C100.773 12.0176 99.6216 12.4326 98.7694 13.2627C97.9172 14.1149 97.4911 15.194 97.4911 16.5C97.4911 17.8503 97.9227 18.9294 98.786 19.7373C99.6493 20.5674 100.795 20.9824 102.223 20.9824C103.683 20.9824 104.835 20.5618 105.676 19.7207ZM132.025 16.5L131.925 17.7949H117.814C117.814 18.8132 118.218 19.6875 119.026 20.418C119.812 21.1595 120.946 21.5303 122.429 21.5303C123.27 21.5303 124.023 21.3864 124.687 21.0986C125.318 20.8109 125.733 20.5231 125.932 20.2354L126.248 19.8369H131.61C131.588 19.9919 131.538 20.1855 131.461 20.418C131.372 20.6947 131.129 21.1318 130.73 21.7295C130.31 22.3825 129.806 22.9469 129.219 23.4229C128.577 23.9209 127.675 24.3581 126.513 24.7344C125.296 25.1328 123.935 25.332 122.429 25.332C119.53 25.332 117.178 24.5518 115.374 22.9912C113.57 21.4307 112.668 19.2669 112.668 16.5C112.668 13.7331 113.564 11.5693 115.357 10.0088C117.15 8.44824 119.485 7.66797 122.363 7.66797C125.218 7.66797 127.543 8.44824 129.336 10.0088C131.129 11.5693 132.025 13.7331 132.025 16.5ZM125.667 12.5156C124.881 11.8184 123.78 11.4697 122.363 11.4697C120.946 11.4697 119.851 11.8239 119.076 12.5322C118.279 13.2516 117.88 14.0098 117.88 14.8066H126.812C126.812 13.9876 126.43 13.224 125.667 12.5156ZM138.486 12.416L146.338 7.66797V12.7979L138.27 17.6289V25H133.372V8H138.27V12.416H138.486Z" fill="white"/>
</svg>
